<mxfile host="Electron" modified="2024-07-10T02:37:51.306Z" agent="Mozilla/5.0 (X11; Linux x86_64) AppleWebKit/537.36 (KHTML, like Gecko) draw.io/24.5.3 Chrome/124.0.6367.207 Electron/30.0.6 Safari/537.36" etag="DeakIn-S2Aut065_ci_l" version="24.5.3" type="device">
  <diagram name="PÃ¡gina-1" id="ztbEaIJMpb_8b0mS4M1y">
    <mxGraphModel dx="1674" dy="879" grid="1" gridSize="10" guides="1" tooltips="1" connect="1" arrows="1" fold="1" page="1" pageScale="1" pageWidth="1169" pageHeight="827" math="0" shadow="0">
      <root>
        <mxCell id="0" />
        <mxCell id="1" parent="0" />
        <mxCell id="QgQMkPNOTrtYwTF4fqQ_-2" value="" style="group" parent="1" vertex="1" connectable="0">
          <mxGeometry x="30" y="140" width="80" height="80" as="geometry" />
        </mxCell>
        <mxCell id="QgQMkPNOTrtYwTF4fqQ_-3" value="" style="shape=lineEllipse;line=vertical;perimeter=ellipsePerimeter;whiteSpace=wrap;html=1;backgroundOutline=1;" parent="QgQMkPNOTrtYwTF4fqQ_-2" vertex="1">
          <mxGeometry width="80" height="80" as="geometry" />
        </mxCell>
        <mxCell id="QgQMkPNOTrtYwTF4fqQ_-4" value="" style="endArrow=none;html=1;rounded=0;exitX=0.492;exitY=0.501;exitDx=0;exitDy=0;exitPerimeter=0;" parent="QgQMkPNOTrtYwTF4fqQ_-2" edge="1">
          <mxGeometry width="50" height="50" relative="1" as="geometry">
            <mxPoint x="40.360000000000014" y="40.08000000000004" as="sourcePoint" />
            <mxPoint x="80" y="40" as="targetPoint" />
          </mxGeometry>
        </mxCell>
        <mxCell id="QgQMkPNOTrtYwTF4fqQ_-5" value="" style="group" parent="QgQMkPNOTrtYwTF4fqQ_-2" vertex="1" connectable="0">
          <mxGeometry y="10" width="70" height="60" as="geometry" />
        </mxCell>
        <mxCell id="QgQMkPNOTrtYwTF4fqQ_-8" value="1" style="text;html=1;align=center;verticalAlign=middle;whiteSpace=wrap;rounded=0;" parent="QgQMkPNOTrtYwTF4fqQ_-5" vertex="1">
          <mxGeometry y="15" width="40" height="30" as="geometry" />
        </mxCell>
        <mxCell id="QgQMkPNOTrtYwTF4fqQ_-33" value="" style="endArrow=classic;html=1;rounded=0;exitX=1;exitY=0;exitDx=0;exitDy=0;" parent="1" source="QgQMkPNOTrtYwTF4fqQ_-3" edge="1">
          <mxGeometry width="50" height="50" relative="1" as="geometry">
            <mxPoint x="150" y="180" as="sourcePoint" />
            <mxPoint x="200" y="80" as="targetPoint" />
          </mxGeometry>
        </mxCell>
        <mxCell id="QgQMkPNOTrtYwTF4fqQ_-39" value="[CATH,1]" style="edgeLabel;html=1;align=center;verticalAlign=middle;resizable=0;points=[];rotation=-30;" parent="QgQMkPNOTrtYwTF4fqQ_-33" vertex="1" connectable="0">
          <mxGeometry x="-0.025" y="-1" relative="1" as="geometry">
            <mxPoint x="-3" y="-15" as="offset" />
          </mxGeometry>
        </mxCell>
        <mxCell id="QgQMkPNOTrtYwTF4fqQ_-34" value="" style="group" parent="1" vertex="1" connectable="0">
          <mxGeometry x="200" y="40" width="80" height="80" as="geometry" />
        </mxCell>
        <mxCell id="QgQMkPNOTrtYwTF4fqQ_-35" value="" style="shape=lineEllipse;line=vertical;perimeter=ellipsePerimeter;whiteSpace=wrap;html=1;backgroundOutline=1;" parent="QgQMkPNOTrtYwTF4fqQ_-34" vertex="1">
          <mxGeometry width="80" height="80" as="geometry" />
        </mxCell>
        <mxCell id="QgQMkPNOTrtYwTF4fqQ_-36" value="" style="endArrow=none;html=1;rounded=0;exitX=0.492;exitY=0.501;exitDx=0;exitDy=0;exitPerimeter=0;" parent="QgQMkPNOTrtYwTF4fqQ_-34" edge="1">
          <mxGeometry width="50" height="50" relative="1" as="geometry">
            <mxPoint x="40.360000000000014" y="40.08000000000004" as="sourcePoint" />
            <mxPoint x="80" y="40" as="targetPoint" />
          </mxGeometry>
        </mxCell>
        <mxCell id="QgQMkPNOTrtYwTF4fqQ_-37" value="" style="group" parent="QgQMkPNOTrtYwTF4fqQ_-34" vertex="1" connectable="0">
          <mxGeometry y="10" width="70" height="60" as="geometry" />
        </mxCell>
        <mxCell id="QgQMkPNOTrtYwTF4fqQ_-38" value="2" style="text;html=1;align=center;verticalAlign=middle;whiteSpace=wrap;rounded=0;" parent="QgQMkPNOTrtYwTF4fqQ_-37" vertex="1">
          <mxGeometry y="15" width="40" height="30" as="geometry" />
        </mxCell>
        <mxCell id="QgQMkPNOTrtYwTF4fqQ_-40" value="" style="group" parent="1" vertex="1" connectable="0">
          <mxGeometry x="200" y="140" width="80" height="80" as="geometry" />
        </mxCell>
        <mxCell id="QgQMkPNOTrtYwTF4fqQ_-41" value="" style="shape=lineEllipse;line=vertical;perimeter=ellipsePerimeter;whiteSpace=wrap;html=1;backgroundOutline=1;" parent="QgQMkPNOTrtYwTF4fqQ_-40" vertex="1">
          <mxGeometry width="80" height="80" as="geometry" />
        </mxCell>
        <mxCell id="QgQMkPNOTrtYwTF4fqQ_-42" value="" style="endArrow=none;html=1;rounded=0;exitX=0.492;exitY=0.501;exitDx=0;exitDy=0;exitPerimeter=0;" parent="QgQMkPNOTrtYwTF4fqQ_-40" edge="1">
          <mxGeometry width="50" height="50" relative="1" as="geometry">
            <mxPoint x="40.360000000000014" y="40.08000000000004" as="sourcePoint" />
            <mxPoint x="80" y="40" as="targetPoint" />
          </mxGeometry>
        </mxCell>
        <mxCell id="QgQMkPNOTrtYwTF4fqQ_-43" value="" style="group" parent="QgQMkPNOTrtYwTF4fqQ_-40" vertex="1" connectable="0">
          <mxGeometry y="10" width="70" height="60" as="geometry" />
        </mxCell>
        <mxCell id="QgQMkPNOTrtYwTF4fqQ_-44" value="3" style="text;html=1;align=center;verticalAlign=middle;whiteSpace=wrap;rounded=0;" parent="QgQMkPNOTrtYwTF4fqQ_-43" vertex="1">
          <mxGeometry y="15" width="40" height="30" as="geometry" />
        </mxCell>
        <mxCell id="QgQMkPNOTrtYwTF4fqQ_-45" value="" style="endArrow=classic;html=1;rounded=0;exitX=1;exitY=0.5;exitDx=0;exitDy=0;entryX=0;entryY=0.5;entryDx=0;entryDy=0;" parent="1" source="QgQMkPNOTrtYwTF4fqQ_-3" target="QgQMkPNOTrtYwTF4fqQ_-44" edge="1">
          <mxGeometry width="50" height="50" relative="1" as="geometry">
            <mxPoint x="150" y="180" as="sourcePoint" />
            <mxPoint x="200" y="130" as="targetPoint" />
          </mxGeometry>
        </mxCell>
        <mxCell id="QgQMkPNOTrtYwTF4fqQ_-46" value="[CSIL,3]" style="edgeLabel;html=1;align=center;verticalAlign=middle;resizable=0;points=[];rotation=0;" parent="QgQMkPNOTrtYwTF4fqQ_-45" vertex="1" connectable="0">
          <mxGeometry x="-0.0326" y="2" relative="1" as="geometry">
            <mxPoint x="6" y="-8" as="offset" />
          </mxGeometry>
        </mxCell>
        <mxCell id="QgQMkPNOTrtYwTF4fqQ_-47" value="" style="group" parent="1" vertex="1" connectable="0">
          <mxGeometry x="200" y="240" width="80" height="80" as="geometry" />
        </mxCell>
        <mxCell id="QgQMkPNOTrtYwTF4fqQ_-48" value="" style="shape=lineEllipse;line=vertical;perimeter=ellipsePerimeter;whiteSpace=wrap;html=1;backgroundOutline=1;" parent="QgQMkPNOTrtYwTF4fqQ_-47" vertex="1">
          <mxGeometry width="80" height="80" as="geometry" />
        </mxCell>
        <mxCell id="QgQMkPNOTrtYwTF4fqQ_-49" value="" style="endArrow=none;html=1;rounded=0;exitX=0.492;exitY=0.501;exitDx=0;exitDy=0;exitPerimeter=0;" parent="QgQMkPNOTrtYwTF4fqQ_-47" edge="1">
          <mxGeometry width="50" height="50" relative="1" as="geometry">
            <mxPoint x="40.360000000000014" y="40.08000000000004" as="sourcePoint" />
            <mxPoint x="80" y="40" as="targetPoint" />
          </mxGeometry>
        </mxCell>
        <mxCell id="QgQMkPNOTrtYwTF4fqQ_-50" value="" style="group" parent="QgQMkPNOTrtYwTF4fqQ_-47" vertex="1" connectable="0">
          <mxGeometry y="10" width="70" height="60" as="geometry" />
        </mxCell>
        <mxCell id="QgQMkPNOTrtYwTF4fqQ_-51" value="4" style="text;html=1;align=center;verticalAlign=middle;whiteSpace=wrap;rounded=0;" parent="QgQMkPNOTrtYwTF4fqQ_-50" vertex="1">
          <mxGeometry y="15" width="40" height="30" as="geometry" />
        </mxCell>
        <mxCell id="QgQMkPNOTrtYwTF4fqQ_-52" value="" style="endArrow=classic;html=1;rounded=0;exitX=1;exitY=1;exitDx=0;exitDy=0;entryX=0;entryY=0.5;entryDx=0;entryDy=0;" parent="1" source="QgQMkPNOTrtYwTF4fqQ_-3" target="QgQMkPNOTrtYwTF4fqQ_-51" edge="1">
          <mxGeometry width="50" height="50" relative="1" as="geometry">
            <mxPoint x="150" y="240" as="sourcePoint" />
            <mxPoint x="200" y="190" as="targetPoint" />
          </mxGeometry>
        </mxCell>
        <mxCell id="QgQMkPNOTrtYwTF4fqQ_-53" value="[CCEL,3]" style="edgeLabel;html=1;align=center;verticalAlign=middle;resizable=0;points=[];rotation=35;" parent="QgQMkPNOTrtYwTF4fqQ_-52" vertex="1" connectable="0">
          <mxGeometry x="0.1273" y="1" relative="1" as="geometry">
            <mxPoint y="-15" as="offset" />
          </mxGeometry>
        </mxCell>
        <mxCell id="QgQMkPNOTrtYwTF4fqQ_-60" value="" style="group" parent="1" vertex="1" connectable="0">
          <mxGeometry x="200" y="350" width="80" height="80" as="geometry" />
        </mxCell>
        <mxCell id="QgQMkPNOTrtYwTF4fqQ_-61" value="" style="shape=lineEllipse;line=vertical;perimeter=ellipsePerimeter;whiteSpace=wrap;html=1;backgroundOutline=1;" parent="QgQMkPNOTrtYwTF4fqQ_-60" vertex="1">
          <mxGeometry width="80" height="80" as="geometry" />
        </mxCell>
        <mxCell id="QgQMkPNOTrtYwTF4fqQ_-62" value="" style="endArrow=none;html=1;rounded=0;exitX=0.492;exitY=0.501;exitDx=0;exitDy=0;exitPerimeter=0;" parent="QgQMkPNOTrtYwTF4fqQ_-60" edge="1">
          <mxGeometry width="50" height="50" relative="1" as="geometry">
            <mxPoint x="40.360000000000014" y="40.08000000000004" as="sourcePoint" />
            <mxPoint x="80" y="40" as="targetPoint" />
          </mxGeometry>
        </mxCell>
        <mxCell id="QgQMkPNOTrtYwTF4fqQ_-63" value="" style="group" parent="QgQMkPNOTrtYwTF4fqQ_-60" vertex="1" connectable="0">
          <mxGeometry y="10" width="70" height="60" as="geometry" />
        </mxCell>
        <mxCell id="QgQMkPNOTrtYwTF4fqQ_-64" value="5" style="text;html=1;align=center;verticalAlign=middle;whiteSpace=wrap;rounded=0;" parent="QgQMkPNOTrtYwTF4fqQ_-63" vertex="1">
          <mxGeometry y="15" width="40" height="30" as="geometry" />
        </mxCell>
        <mxCell id="QgQMkPNOTrtYwTF4fqQ_-65" value="" style="endArrow=classic;html=1;rounded=0;exitX=0.5;exitY=1;exitDx=0;exitDy=0;entryX=0;entryY=0;entryDx=0;entryDy=0;" parent="1" source="QgQMkPNOTrtYwTF4fqQ_-3" target="QgQMkPNOTrtYwTF4fqQ_-61" edge="1">
          <mxGeometry width="50" height="50" relative="1" as="geometry">
            <mxPoint x="390" y="390" as="sourcePoint" />
            <mxPoint x="440" y="340" as="targetPoint" />
          </mxGeometry>
        </mxCell>
        <mxCell id="QgQMkPNOTrtYwTF4fqQ_-66" value="[CAGU, 3]" style="edgeLabel;html=1;align=center;verticalAlign=middle;resizable=0;points=[];rotation=50;" parent="QgQMkPNOTrtYwTF4fqQ_-65" vertex="1" connectable="0">
          <mxGeometry x="-0.1298" relative="1" as="geometry">
            <mxPoint x="14" y="-3" as="offset" />
          </mxGeometry>
        </mxCell>
        <mxCell id="h3vyyUVWs3sO6inEHpiN-1" value="" style="group" vertex="1" connectable="0" parent="1">
          <mxGeometry x="30" y="140" width="80" height="80" as="geometry" />
        </mxCell>
        <mxCell id="h3vyyUVWs3sO6inEHpiN-2" value="" style="shape=lineEllipse;line=vertical;perimeter=ellipsePerimeter;whiteSpace=wrap;html=1;backgroundOutline=1;" vertex="1" parent="h3vyyUVWs3sO6inEHpiN-1">
          <mxGeometry width="80" height="80" as="geometry" />
        </mxCell>
        <mxCell id="h3vyyUVWs3sO6inEHpiN-3" value="" style="endArrow=none;html=1;rounded=0;exitX=0.492;exitY=0.501;exitDx=0;exitDy=0;exitPerimeter=0;" edge="1" parent="h3vyyUVWs3sO6inEHpiN-1">
          <mxGeometry width="50" height="50" relative="1" as="geometry">
            <mxPoint x="40.360000000000014" y="40.08000000000004" as="sourcePoint" />
            <mxPoint x="80" y="40" as="targetPoint" />
          </mxGeometry>
        </mxCell>
        <mxCell id="h3vyyUVWs3sO6inEHpiN-4" value="" style="group" vertex="1" connectable="0" parent="h3vyyUVWs3sO6inEHpiN-1">
          <mxGeometry y="10" width="70" height="60" as="geometry" />
        </mxCell>
        <mxCell id="h3vyyUVWs3sO6inEHpiN-5" value="1" style="text;html=1;align=center;verticalAlign=middle;whiteSpace=wrap;rounded=0;" vertex="1" parent="h3vyyUVWs3sO6inEHpiN-4">
          <mxGeometry y="15" width="40" height="30" as="geometry" />
        </mxCell>
        <mxCell id="h3vyyUVWs3sO6inEHpiN-6" value="" style="endArrow=classic;html=1;rounded=0;exitX=1;exitY=0;exitDx=0;exitDy=0;" edge="1" parent="1" source="h3vyyUVWs3sO6inEHpiN-2">
          <mxGeometry width="50" height="50" relative="1" as="geometry">
            <mxPoint x="150" y="180" as="sourcePoint" />
            <mxPoint x="200" y="80" as="targetPoint" />
          </mxGeometry>
        </mxCell>
        <mxCell id="h3vyyUVWs3sO6inEHpiN-7" value="[CATH, 1]" style="edgeLabel;html=1;align=center;verticalAlign=middle;resizable=0;points=[];rotation=-30;" vertex="1" connectable="0" parent="h3vyyUVWs3sO6inEHpiN-6">
          <mxGeometry x="-0.025" y="-1" relative="1" as="geometry">
            <mxPoint x="-3" y="-15" as="offset" />
          </mxGeometry>
        </mxCell>
        <mxCell id="h3vyyUVWs3sO6inEHpiN-8" value="" style="group" vertex="1" connectable="0" parent="1">
          <mxGeometry x="200" y="40" width="80" height="80" as="geometry" />
        </mxCell>
        <mxCell id="h3vyyUVWs3sO6inEHpiN-9" value="" style="shape=lineEllipse;line=vertical;perimeter=ellipsePerimeter;whiteSpace=wrap;html=1;backgroundOutline=1;" vertex="1" parent="h3vyyUVWs3sO6inEHpiN-8">
          <mxGeometry width="80" height="80" as="geometry" />
        </mxCell>
        <mxCell id="h3vyyUVWs3sO6inEHpiN-10" value="" style="endArrow=none;html=1;rounded=0;exitX=0.492;exitY=0.501;exitDx=0;exitDy=0;exitPerimeter=0;" edge="1" parent="h3vyyUVWs3sO6inEHpiN-8">
          <mxGeometry width="50" height="50" relative="1" as="geometry">
            <mxPoint x="40.360000000000014" y="40.08000000000004" as="sourcePoint" />
            <mxPoint x="80" y="40" as="targetPoint" />
          </mxGeometry>
        </mxCell>
        <mxCell id="h3vyyUVWs3sO6inEHpiN-11" value="" style="group" vertex="1" connectable="0" parent="h3vyyUVWs3sO6inEHpiN-8">
          <mxGeometry y="10" width="70" height="60" as="geometry" />
        </mxCell>
        <mxCell id="h3vyyUVWs3sO6inEHpiN-12" value="2" style="text;html=1;align=center;verticalAlign=middle;whiteSpace=wrap;rounded=0;" vertex="1" parent="h3vyyUVWs3sO6inEHpiN-11">
          <mxGeometry y="15" width="40" height="30" as="geometry" />
        </mxCell>
        <mxCell id="h3vyyUVWs3sO6inEHpiN-13" value="" style="group" vertex="1" connectable="0" parent="1">
          <mxGeometry x="200" y="140" width="80" height="80" as="geometry" />
        </mxCell>
        <mxCell id="h3vyyUVWs3sO6inEHpiN-14" value="" style="shape=lineEllipse;line=vertical;perimeter=ellipsePerimeter;whiteSpace=wrap;html=1;backgroundOutline=1;" vertex="1" parent="h3vyyUVWs3sO6inEHpiN-13">
          <mxGeometry width="80" height="80" as="geometry" />
        </mxCell>
        <mxCell id="h3vyyUVWs3sO6inEHpiN-15" value="" style="endArrow=none;html=1;rounded=0;exitX=0.492;exitY=0.501;exitDx=0;exitDy=0;exitPerimeter=0;" edge="1" parent="h3vyyUVWs3sO6inEHpiN-13">
          <mxGeometry width="50" height="50" relative="1" as="geometry">
            <mxPoint x="40.360000000000014" y="40.08000000000004" as="sourcePoint" />
            <mxPoint x="80" y="40" as="targetPoint" />
          </mxGeometry>
        </mxCell>
        <mxCell id="h3vyyUVWs3sO6inEHpiN-16" value="" style="group" vertex="1" connectable="0" parent="h3vyyUVWs3sO6inEHpiN-13">
          <mxGeometry y="10" width="70" height="60" as="geometry" />
        </mxCell>
        <mxCell id="h3vyyUVWs3sO6inEHpiN-17" value="3" style="text;html=1;align=center;verticalAlign=middle;whiteSpace=wrap;rounded=0;" vertex="1" parent="h3vyyUVWs3sO6inEHpiN-16">
          <mxGeometry y="15" width="40" height="30" as="geometry" />
        </mxCell>
        <mxCell id="h3vyyUVWs3sO6inEHpiN-18" value="" style="endArrow=classic;html=1;rounded=0;exitX=1;exitY=0.5;exitDx=0;exitDy=0;entryX=0;entryY=0.5;entryDx=0;entryDy=0;" edge="1" parent="1" source="h3vyyUVWs3sO6inEHpiN-2" target="h3vyyUVWs3sO6inEHpiN-17">
          <mxGeometry width="50" height="50" relative="1" as="geometry">
            <mxPoint x="150" y="180" as="sourcePoint" />
            <mxPoint x="200" y="130" as="targetPoint" />
          </mxGeometry>
        </mxCell>
        <mxCell id="h3vyyUVWs3sO6inEHpiN-19" value="[CSIL, 3]" style="edgeLabel;html=1;align=center;verticalAlign=middle;resizable=0;points=[];rotation=0;" vertex="1" connectable="0" parent="h3vyyUVWs3sO6inEHpiN-18">
          <mxGeometry x="-0.0326" y="2" relative="1" as="geometry">
            <mxPoint x="6" y="-8" as="offset" />
          </mxGeometry>
        </mxCell>
        <mxCell id="h3vyyUVWs3sO6inEHpiN-20" value="" style="endArrow=none;html=1;rounded=0;exitX=0.492;exitY=0.501;exitDx=0;exitDy=0;exitPerimeter=0;" edge="1" parent="1">
          <mxGeometry width="50" height="50" relative="1" as="geometry">
            <mxPoint x="240.36" y="280.08000000000004" as="sourcePoint" />
            <mxPoint x="280" y="280" as="targetPoint" />
          </mxGeometry>
        </mxCell>
        <mxCell id="h3vyyUVWs3sO6inEHpiN-21" value="4" style="text;html=1;align=center;verticalAlign=middle;whiteSpace=wrap;rounded=0;" vertex="1" parent="1">
          <mxGeometry x="200" y="265" width="40" height="30" as="geometry" />
        </mxCell>
        <mxCell id="h3vyyUVWs3sO6inEHpiN-22" value="" style="endArrow=classic;html=1;rounded=0;exitX=1;exitY=1;exitDx=0;exitDy=0;entryX=0;entryY=0.5;entryDx=0;entryDy=0;" edge="1" parent="1" source="h3vyyUVWs3sO6inEHpiN-2" target="h3vyyUVWs3sO6inEHpiN-21">
          <mxGeometry width="50" height="50" relative="1" as="geometry">
            <mxPoint x="150" y="240" as="sourcePoint" />
            <mxPoint x="200" y="190" as="targetPoint" />
          </mxGeometry>
        </mxCell>
        <mxCell id="h3vyyUVWs3sO6inEHpiN-23" value="[CCEL, 3]" style="edgeLabel;html=1;align=center;verticalAlign=middle;resizable=0;points=[];rotation=35;" vertex="1" connectable="0" parent="h3vyyUVWs3sO6inEHpiN-22">
          <mxGeometry x="0.1273" y="1" relative="1" as="geometry">
            <mxPoint y="-15" as="offset" />
          </mxGeometry>
        </mxCell>
        <mxCell id="h3vyyUVWs3sO6inEHpiN-31" value="" style="endArrow=classic;html=1;rounded=0;entryX=0;entryY=0.5;entryDx=0;entryDy=0;exitX=1;exitY=0.5;exitDx=0;exitDy=0;" edge="1" parent="1" source="h3vyyUVWs3sO6inEHpiN-14" target="h3vyyUVWs3sO6inEHpiN-74">
          <mxGeometry width="50" height="50" relative="1" as="geometry">
            <mxPoint x="310" y="200" as="sourcePoint" />
            <mxPoint x="429.9999999999998" y="180" as="targetPoint" />
          </mxGeometry>
        </mxCell>
        <mxCell id="h3vyyUVWs3sO6inEHpiN-32" value="[DSIL, 1]" style="edgeLabel;html=1;align=center;verticalAlign=middle;resizable=0;points=[];rotation=0;" vertex="1" connectable="0" parent="h3vyyUVWs3sO6inEHpiN-31">
          <mxGeometry x="-0.0326" y="2" relative="1" as="geometry">
            <mxPoint x="-2" y="-8" as="offset" />
          </mxGeometry>
        </mxCell>
        <mxCell id="h3vyyUVWs3sO6inEHpiN-42" value="" style="endArrow=classic;html=1;rounded=0;exitX=1;exitY=0.5;exitDx=0;exitDy=0;entryX=0;entryY=1;entryDx=0;entryDy=0;" edge="1" parent="1" source="QgQMkPNOTrtYwTF4fqQ_-48" target="h3vyyUVWs3sO6inEHpiN-74">
          <mxGeometry width="50" height="50" relative="1" as="geometry">
            <mxPoint x="280" y="280" as="sourcePoint" />
            <mxPoint x="430" y="280" as="targetPoint" />
          </mxGeometry>
        </mxCell>
        <mxCell id="h3vyyUVWs3sO6inEHpiN-43" value="[DCEL, 1]" style="edgeLabel;html=1;align=center;verticalAlign=middle;resizable=0;points=[];rotation=-30;" vertex="1" connectable="0" parent="h3vyyUVWs3sO6inEHpiN-42">
          <mxGeometry x="-0.0326" y="2" relative="1" as="geometry">
            <mxPoint x="9" y="-17" as="offset" />
          </mxGeometry>
        </mxCell>
        <mxCell id="h3vyyUVWs3sO6inEHpiN-51" value="" style="endArrow=classic;html=1;rounded=0;exitX=1;exitY=0.5;exitDx=0;exitDy=0;" edge="1" parent="1" target="h3vyyUVWs3sO6inEHpiN-71" source="h3vyyUVWs3sO6inEHpiN-9">
          <mxGeometry width="50" height="50" relative="1" as="geometry">
            <mxPoint x="290" y="90" as="sourcePoint" />
            <mxPoint x="429.9999999999998" y="80" as="targetPoint" />
          </mxGeometry>
        </mxCell>
        <mxCell id="h3vyyUVWs3sO6inEHpiN-52" value="[DATH, 0.5]" style="edgeLabel;html=1;align=center;verticalAlign=middle;resizable=0;points=[];rotation=15;" vertex="1" connectable="0" parent="h3vyyUVWs3sO6inEHpiN-51">
          <mxGeometry x="-0.0326" y="2" relative="1" as="geometry">
            <mxPoint x="5" y="-9" as="offset" />
          </mxGeometry>
        </mxCell>
        <mxCell id="h3vyyUVWs3sO6inEHpiN-63" value="" style="group" vertex="1" connectable="0" parent="1">
          <mxGeometry x="440" y="350" width="80" height="80" as="geometry" />
        </mxCell>
        <mxCell id="h3vyyUVWs3sO6inEHpiN-64" value="" style="shape=lineEllipse;line=vertical;perimeter=ellipsePerimeter;whiteSpace=wrap;html=1;backgroundOutline=1;" vertex="1" parent="h3vyyUVWs3sO6inEHpiN-63">
          <mxGeometry width="80" height="80" as="geometry" />
        </mxCell>
        <mxCell id="h3vyyUVWs3sO6inEHpiN-65" value="" style="endArrow=none;html=1;rounded=0;exitX=0.492;exitY=0.501;exitDx=0;exitDy=0;exitPerimeter=0;" edge="1" parent="h3vyyUVWs3sO6inEHpiN-63">
          <mxGeometry width="50" height="50" relative="1" as="geometry">
            <mxPoint x="40.360000000000014" y="40.08000000000004" as="sourcePoint" />
            <mxPoint x="80" y="40" as="targetPoint" />
          </mxGeometry>
        </mxCell>
        <mxCell id="h3vyyUVWs3sO6inEHpiN-66" value="" style="group" vertex="1" connectable="0" parent="h3vyyUVWs3sO6inEHpiN-63">
          <mxGeometry y="10" width="70" height="60" as="geometry" />
        </mxCell>
        <mxCell id="h3vyyUVWs3sO6inEHpiN-67" value="7" style="text;html=1;align=center;verticalAlign=middle;whiteSpace=wrap;rounded=0;" vertex="1" parent="h3vyyUVWs3sO6inEHpiN-66">
          <mxGeometry y="15" width="40" height="30" as="geometry" />
        </mxCell>
        <mxCell id="h3vyyUVWs3sO6inEHpiN-68" value="" style="endArrow=classic;html=1;rounded=0;entryX=0;entryY=0.5;entryDx=0;entryDy=0;exitX=1;exitY=0.5;exitDx=0;exitDy=0;" edge="1" parent="1" target="h3vyyUVWs3sO6inEHpiN-67" source="QgQMkPNOTrtYwTF4fqQ_-61">
          <mxGeometry width="50" height="50" relative="1" as="geometry">
            <mxPoint x="280" y="390" as="sourcePoint" />
            <mxPoint x="420" y="390" as="targetPoint" />
          </mxGeometry>
        </mxCell>
        <mxCell id="h3vyyUVWs3sO6inEHpiN-69" value="[CCEM, 2]" style="edgeLabel;html=1;align=center;verticalAlign=middle;resizable=0;points=[];rotation=0;" vertex="1" connectable="0" parent="h3vyyUVWs3sO6inEHpiN-68">
          <mxGeometry x="-0.0326" y="2" relative="1" as="geometry">
            <mxPoint x="5" y="-8" as="offset" />
          </mxGeometry>
        </mxCell>
        <mxCell id="h3vyyUVWs3sO6inEHpiN-70" value="" style="group" vertex="1" connectable="0" parent="1">
          <mxGeometry x="530" y="140" width="80" height="80" as="geometry" />
        </mxCell>
        <mxCell id="h3vyyUVWs3sO6inEHpiN-71" value="" style="shape=lineEllipse;line=vertical;perimeter=ellipsePerimeter;whiteSpace=wrap;html=1;backgroundOutline=1;" vertex="1" parent="h3vyyUVWs3sO6inEHpiN-70">
          <mxGeometry width="80" height="80" as="geometry" />
        </mxCell>
        <mxCell id="h3vyyUVWs3sO6inEHpiN-72" value="" style="endArrow=none;html=1;rounded=0;exitX=0.492;exitY=0.501;exitDx=0;exitDy=0;exitPerimeter=0;" edge="1" parent="h3vyyUVWs3sO6inEHpiN-70">
          <mxGeometry width="50" height="50" relative="1" as="geometry">
            <mxPoint x="40.360000000000014" y="40.08000000000004" as="sourcePoint" />
            <mxPoint x="80" y="40" as="targetPoint" />
          </mxGeometry>
        </mxCell>
        <mxCell id="h3vyyUVWs3sO6inEHpiN-73" value="" style="group" vertex="1" connectable="0" parent="h3vyyUVWs3sO6inEHpiN-70">
          <mxGeometry y="10" width="70" height="60" as="geometry" />
        </mxCell>
        <mxCell id="h3vyyUVWs3sO6inEHpiN-74" value="6" style="text;html=1;align=center;verticalAlign=middle;whiteSpace=wrap;rounded=0;" vertex="1" parent="h3vyyUVWs3sO6inEHpiN-73">
          <mxGeometry y="15" width="40" height="30" as="geometry" />
        </mxCell>
        <mxCell id="h3vyyUVWs3sO6inEHpiN-81" value="" style="group" vertex="1" connectable="0" parent="1">
          <mxGeometry x="750" y="140" width="80" height="80" as="geometry" />
        </mxCell>
        <mxCell id="h3vyyUVWs3sO6inEHpiN-82" value="" style="shape=lineEllipse;line=vertical;perimeter=ellipsePerimeter;whiteSpace=wrap;html=1;backgroundOutline=1;" vertex="1" parent="h3vyyUVWs3sO6inEHpiN-81">
          <mxGeometry width="80" height="80" as="geometry" />
        </mxCell>
        <mxCell id="h3vyyUVWs3sO6inEHpiN-83" value="" style="endArrow=none;html=1;rounded=0;exitX=0.492;exitY=0.501;exitDx=0;exitDy=0;exitPerimeter=0;" edge="1" parent="h3vyyUVWs3sO6inEHpiN-81">
          <mxGeometry width="50" height="50" relative="1" as="geometry">
            <mxPoint x="40.360000000000014" y="40.08000000000004" as="sourcePoint" />
            <mxPoint x="80" y="40" as="targetPoint" />
          </mxGeometry>
        </mxCell>
        <mxCell id="h3vyyUVWs3sO6inEHpiN-84" value="" style="group" vertex="1" connectable="0" parent="h3vyyUVWs3sO6inEHpiN-81">
          <mxGeometry y="10" width="70" height="60" as="geometry" />
        </mxCell>
        <mxCell id="h3vyyUVWs3sO6inEHpiN-85" value="8" style="text;html=1;align=center;verticalAlign=middle;whiteSpace=wrap;rounded=0;" vertex="1" parent="h3vyyUVWs3sO6inEHpiN-84">
          <mxGeometry y="15" width="40" height="30" as="geometry" />
        </mxCell>
        <mxCell id="h3vyyUVWs3sO6inEHpiN-87" value="" style="endArrow=classic;html=1;rounded=0;exitX=1;exitY=0.5;exitDx=0;exitDy=0;" edge="1" parent="1" source="h3vyyUVWs3sO6inEHpiN-71" target="h3vyyUVWs3sO6inEHpiN-82">
          <mxGeometry width="50" height="50" relative="1" as="geometry">
            <mxPoint x="570" y="80" as="sourcePoint" />
            <mxPoint x="810" y="190" as="targetPoint" />
          </mxGeometry>
        </mxCell>
        <mxCell id="h3vyyUVWs3sO6inEHpiN-88" value="[DLOD, 0.75]" style="edgeLabel;html=1;align=center;verticalAlign=middle;resizable=0;points=[];rotation=0;" vertex="1" connectable="0" parent="h3vyyUVWs3sO6inEHpiN-87">
          <mxGeometry x="-0.0326" y="2" relative="1" as="geometry">
            <mxPoint x="5" y="-9" as="offset" />
          </mxGeometry>
        </mxCell>
        <mxCell id="h3vyyUVWs3sO6inEHpiN-94" value="" style="group" vertex="1" connectable="0" parent="1">
          <mxGeometry x="660" y="350" width="80" height="80" as="geometry" />
        </mxCell>
        <mxCell id="h3vyyUVWs3sO6inEHpiN-95" value="" style="shape=lineEllipse;line=vertical;perimeter=ellipsePerimeter;whiteSpace=wrap;html=1;backgroundOutline=1;" vertex="1" parent="h3vyyUVWs3sO6inEHpiN-94">
          <mxGeometry width="80" height="80" as="geometry" />
        </mxCell>
        <mxCell id="h3vyyUVWs3sO6inEHpiN-96" value="" style="endArrow=none;html=1;rounded=0;exitX=0.492;exitY=0.501;exitDx=0;exitDy=0;exitPerimeter=0;" edge="1" parent="h3vyyUVWs3sO6inEHpiN-94">
          <mxGeometry width="50" height="50" relative="1" as="geometry">
            <mxPoint x="40.360000000000014" y="40.08000000000004" as="sourcePoint" />
            <mxPoint x="80" y="40" as="targetPoint" />
          </mxGeometry>
        </mxCell>
        <mxCell id="h3vyyUVWs3sO6inEHpiN-97" value="" style="group" vertex="1" connectable="0" parent="h3vyyUVWs3sO6inEHpiN-94">
          <mxGeometry y="10" width="70" height="60" as="geometry" />
        </mxCell>
        <mxCell id="h3vyyUVWs3sO6inEHpiN-98" value="9" style="text;html=1;align=center;verticalAlign=middle;whiteSpace=wrap;rounded=0;" vertex="1" parent="h3vyyUVWs3sO6inEHpiN-97">
          <mxGeometry y="15" width="40" height="30" as="geometry" />
        </mxCell>
        <mxCell id="h3vyyUVWs3sO6inEHpiN-100" value="" style="endArrow=classic;html=1;rounded=0;exitX=1;exitY=0.5;exitDx=0;exitDy=0;" edge="1" parent="1" source="h3vyyUVWs3sO6inEHpiN-82" target="h3vyyUVWs3sO6inEHpiN-128">
          <mxGeometry width="50" height="50" relative="1" as="geometry">
            <mxPoint x="560" y="190" as="sourcePoint" />
            <mxPoint x="810" y="100" as="targetPoint" />
          </mxGeometry>
        </mxCell>
        <mxCell id="h3vyyUVWs3sO6inEHpiN-101" value="[EAGU, 0.25]" style="edgeLabel;html=1;align=center;verticalAlign=middle;resizable=0;points=[];rotation=-5;" vertex="1" connectable="0" parent="h3vyyUVWs3sO6inEHpiN-100">
          <mxGeometry x="-0.0326" y="2" relative="1" as="geometry">
            <mxPoint x="-2" y="-15" as="offset" />
          </mxGeometry>
        </mxCell>
        <mxCell id="h3vyyUVWs3sO6inEHpiN-112" value="" style="endArrow=classic;html=1;rounded=0;exitX=1;exitY=0.5;exitDx=0;exitDy=0;" edge="1" parent="1" source="h3vyyUVWs3sO6inEHpiN-64" target="h3vyyUVWs3sO6inEHpiN-95">
          <mxGeometry width="50" height="50" relative="1" as="geometry">
            <mxPoint x="560" y="190" as="sourcePoint" />
            <mxPoint x="850.0000000000084" y="390.0000000000001" as="targetPoint" />
          </mxGeometry>
        </mxCell>
        <mxCell id="h3vyyUVWs3sO6inEHpiN-113" value="[MCEM, 0.75]" style="edgeLabel;html=1;align=center;verticalAlign=middle;resizable=0;points=[];rotation=0;" vertex="1" connectable="0" parent="h3vyyUVWs3sO6inEHpiN-112">
          <mxGeometry x="-0.0326" y="2" relative="1" as="geometry">
            <mxPoint y="-8" as="offset" />
          </mxGeometry>
        </mxCell>
        <mxCell id="h3vyyUVWs3sO6inEHpiN-115" value="" style="group" vertex="1" connectable="0" parent="1">
          <mxGeometry x="870" y="350" width="80" height="80" as="geometry" />
        </mxCell>
        <mxCell id="h3vyyUVWs3sO6inEHpiN-116" value="" style="shape=lineEllipse;line=vertical;perimeter=ellipsePerimeter;whiteSpace=wrap;html=1;backgroundOutline=1;" vertex="1" parent="h3vyyUVWs3sO6inEHpiN-115">
          <mxGeometry width="80" height="80" as="geometry" />
        </mxCell>
        <mxCell id="h3vyyUVWs3sO6inEHpiN-117" value="" style="endArrow=none;html=1;rounded=0;exitX=0.492;exitY=0.501;exitDx=0;exitDy=0;exitPerimeter=0;" edge="1" parent="h3vyyUVWs3sO6inEHpiN-115">
          <mxGeometry width="50" height="50" relative="1" as="geometry">
            <mxPoint x="40.360000000000014" y="40.08000000000004" as="sourcePoint" />
            <mxPoint x="80" y="40" as="targetPoint" />
          </mxGeometry>
        </mxCell>
        <mxCell id="h3vyyUVWs3sO6inEHpiN-118" value="" style="group" vertex="1" connectable="0" parent="h3vyyUVWs3sO6inEHpiN-115">
          <mxGeometry y="10" width="70" height="60" as="geometry" />
        </mxCell>
        <mxCell id="h3vyyUVWs3sO6inEHpiN-119" value="10" style="text;html=1;align=center;verticalAlign=middle;whiteSpace=wrap;rounded=0;" vertex="1" parent="h3vyyUVWs3sO6inEHpiN-118">
          <mxGeometry y="15" width="40" height="30" as="geometry" />
        </mxCell>
        <mxCell id="h3vyyUVWs3sO6inEHpiN-120" value="" style="endArrow=classic;html=1;rounded=0;exitX=1;exitY=0.5;exitDx=0;exitDy=0;" edge="1" parent="1" source="h3vyyUVWs3sO6inEHpiN-95" target="h3vyyUVWs3sO6inEHpiN-116">
          <mxGeometry width="50" height="50" relative="1" as="geometry">
            <mxPoint x="740" y="190" as="sourcePoint" />
            <mxPoint x="820" y="110" as="targetPoint" />
          </mxGeometry>
        </mxCell>
        <mxCell id="h3vyyUVWs3sO6inEHpiN-121" value="[DCEM, 1]" style="edgeLabel;html=1;align=center;verticalAlign=middle;resizable=0;points=[];rotation=0;" vertex="1" connectable="0" parent="h3vyyUVWs3sO6inEHpiN-120">
          <mxGeometry x="-0.0326" y="2" relative="1" as="geometry">
            <mxPoint x="-3" y="-10" as="offset" />
          </mxGeometry>
        </mxCell>
        <mxCell id="h3vyyUVWs3sO6inEHpiN-127" value="" style="group" vertex="1" connectable="0" parent="1">
          <mxGeometry x="1000" y="240" width="80" height="80" as="geometry" />
        </mxCell>
        <mxCell id="h3vyyUVWs3sO6inEHpiN-128" value="" style="shape=lineEllipse;line=vertical;perimeter=ellipsePerimeter;whiteSpace=wrap;html=1;backgroundOutline=1;" vertex="1" parent="h3vyyUVWs3sO6inEHpiN-127">
          <mxGeometry width="80" height="80" as="geometry" />
        </mxCell>
        <mxCell id="h3vyyUVWs3sO6inEHpiN-129" value="" style="endArrow=none;html=1;rounded=0;exitX=0.492;exitY=0.501;exitDx=0;exitDy=0;exitPerimeter=0;" edge="1" parent="h3vyyUVWs3sO6inEHpiN-127">
          <mxGeometry width="50" height="50" relative="1" as="geometry">
            <mxPoint x="40.360000000000014" y="40.08000000000004" as="sourcePoint" />
            <mxPoint x="80" y="40" as="targetPoint" />
          </mxGeometry>
        </mxCell>
        <mxCell id="h3vyyUVWs3sO6inEHpiN-130" value="" style="group" vertex="1" connectable="0" parent="h3vyyUVWs3sO6inEHpiN-127">
          <mxGeometry y="10" width="70" height="60" as="geometry" />
        </mxCell>
        <mxCell id="h3vyyUVWs3sO6inEHpiN-131" value="11" style="text;html=1;align=center;verticalAlign=middle;whiteSpace=wrap;rounded=0;" vertex="1" parent="h3vyyUVWs3sO6inEHpiN-130">
          <mxGeometry y="15" width="40" height="30" as="geometry" />
        </mxCell>
        <mxCell id="h3vyyUVWs3sO6inEHpiN-137" value="" style="endArrow=classic;html=1;rounded=0;exitX=1;exitY=0.5;exitDx=0;exitDy=0;entryX=0.125;entryY=0.75;entryDx=0;entryDy=0;entryPerimeter=0;" edge="1" parent="1" source="h3vyyUVWs3sO6inEHpiN-116" target="h3vyyUVWs3sO6inEHpiN-128">
          <mxGeometry width="50" height="50" relative="1" as="geometry">
            <mxPoint x="780" y="383" as="sourcePoint" />
            <mxPoint x="954" y="298" as="targetPoint" />
          </mxGeometry>
        </mxCell>
        <mxCell id="h3vyyUVWs3sO6inEHpiN-138" value="[ECEM, 0.25]" style="edgeLabel;html=1;align=center;verticalAlign=middle;resizable=0;points=[];rotation=-60;" vertex="1" connectable="0" parent="h3vyyUVWs3sO6inEHpiN-137">
          <mxGeometry x="-0.0326" y="2" relative="1" as="geometry">
            <mxPoint x="-7" y="-12" as="offset" />
          </mxGeometry>
        </mxCell>
        <mxCell id="h3vyyUVWs3sO6inEHpiN-141" value="" style="group" vertex="1" connectable="0" parent="1">
          <mxGeometry x="1140" y="240" width="80" height="80" as="geometry" />
        </mxCell>
        <mxCell id="h3vyyUVWs3sO6inEHpiN-142" value="" style="shape=lineEllipse;line=vertical;perimeter=ellipsePerimeter;whiteSpace=wrap;html=1;backgroundOutline=1;" vertex="1" parent="h3vyyUVWs3sO6inEHpiN-141">
          <mxGeometry width="80" height="80" as="geometry" />
        </mxCell>
        <mxCell id="h3vyyUVWs3sO6inEHpiN-143" value="" style="endArrow=none;html=1;rounded=0;exitX=0.492;exitY=0.501;exitDx=0;exitDy=0;exitPerimeter=0;" edge="1" parent="h3vyyUVWs3sO6inEHpiN-141">
          <mxGeometry width="50" height="50" relative="1" as="geometry">
            <mxPoint x="40.360000000000014" y="40.08000000000004" as="sourcePoint" />
            <mxPoint x="80" y="40" as="targetPoint" />
          </mxGeometry>
        </mxCell>
        <mxCell id="h3vyyUVWs3sO6inEHpiN-144" value="" style="group" vertex="1" connectable="0" parent="h3vyyUVWs3sO6inEHpiN-141">
          <mxGeometry y="10" width="70" height="60" as="geometry" />
        </mxCell>
        <mxCell id="h3vyyUVWs3sO6inEHpiN-145" value="12" style="text;html=1;align=center;verticalAlign=middle;whiteSpace=wrap;rounded=0;" vertex="1" parent="h3vyyUVWs3sO6inEHpiN-144">
          <mxGeometry y="15" width="40" height="30" as="geometry" />
        </mxCell>
        <mxCell id="h3vyyUVWs3sO6inEHpiN-146" value="" style="endArrow=classic;html=1;rounded=0;exitX=1;exitY=0.5;exitDx=0;exitDy=0;" edge="1" parent="1" source="h3vyyUVWs3sO6inEHpiN-128" target="h3vyyUVWs3sO6inEHpiN-142">
          <mxGeometry width="50" height="50" relative="1" as="geometry">
            <mxPoint x="740" y="190" as="sourcePoint" />
            <mxPoint x="1010" y="164" as="targetPoint" />
          </mxGeometry>
        </mxCell>
        <mxCell id="h3vyyUVWs3sO6inEHpiN-147" value="[MPAS, 1]" style="edgeLabel;html=1;align=center;verticalAlign=middle;resizable=0;points=[];rotation=-5;" vertex="1" connectable="0" parent="h3vyyUVWs3sO6inEHpiN-146">
          <mxGeometry x="-0.0326" y="2" relative="1" as="geometry">
            <mxPoint x="-2" y="-15" as="offset" />
          </mxGeometry>
        </mxCell>
        <mxCell id="h3vyyUVWs3sO6inEHpiN-152" value="" style="group" vertex="1" connectable="0" parent="1">
          <mxGeometry x="1300" y="240" width="80" height="80" as="geometry" />
        </mxCell>
        <mxCell id="h3vyyUVWs3sO6inEHpiN-153" value="" style="shape=lineEllipse;line=vertical;perimeter=ellipsePerimeter;whiteSpace=wrap;html=1;backgroundOutline=1;" vertex="1" parent="h3vyyUVWs3sO6inEHpiN-152">
          <mxGeometry width="80" height="80" as="geometry" />
        </mxCell>
        <mxCell id="h3vyyUVWs3sO6inEHpiN-154" value="" style="endArrow=none;html=1;rounded=0;exitX=0.492;exitY=0.501;exitDx=0;exitDy=0;exitPerimeter=0;" edge="1" parent="h3vyyUVWs3sO6inEHpiN-152">
          <mxGeometry width="50" height="50" relative="1" as="geometry">
            <mxPoint x="40.360000000000014" y="40.08000000000004" as="sourcePoint" />
            <mxPoint x="80" y="40" as="targetPoint" />
          </mxGeometry>
        </mxCell>
        <mxCell id="h3vyyUVWs3sO6inEHpiN-155" value="" style="group" vertex="1" connectable="0" parent="h3vyyUVWs3sO6inEHpiN-152">
          <mxGeometry y="10" width="70" height="60" as="geometry" />
        </mxCell>
        <mxCell id="h3vyyUVWs3sO6inEHpiN-156" value="13" style="text;html=1;align=center;verticalAlign=middle;whiteSpace=wrap;rounded=0;" vertex="1" parent="h3vyyUVWs3sO6inEHpiN-155">
          <mxGeometry y="15" width="40" height="30" as="geometry" />
        </mxCell>
        <mxCell id="h3vyyUVWs3sO6inEHpiN-162" value="" style="endArrow=classic;html=1;rounded=0;exitX=1;exitY=0.5;exitDx=0;exitDy=0;" edge="1" parent="1" source="h3vyyUVWs3sO6inEHpiN-142" target="h3vyyUVWs3sO6inEHpiN-153">
          <mxGeometry width="50" height="50" relative="1" as="geometry">
            <mxPoint x="1270" y="150" as="sourcePoint" />
            <mxPoint x="1200" y="160" as="targetPoint" />
          </mxGeometry>
        </mxCell>
        <mxCell id="h3vyyUVWs3sO6inEHpiN-163" value="[DPAS, 1.5]" style="edgeLabel;html=1;align=center;verticalAlign=middle;resizable=0;points=[];rotation=-5;" vertex="1" connectable="0" parent="h3vyyUVWs3sO6inEHpiN-162">
          <mxGeometry x="-0.0326" y="2" relative="1" as="geometry">
            <mxPoint x="-2" y="-13" as="offset" />
          </mxGeometry>
        </mxCell>
      </root>
    </mxGraphModel>
  </diagram>
</mxfile>
